<?xml version="1.0" encoding="UTF-8"?>
<svg version="1.1" xmlns="http://www.w3.org/2000/svg" width="1612" height="1100">
<path d="M0 0 C1.12998161 0.72370789 1.12998161 0.72370789 2.28279114 1.46203613 C3.27204086 2.09395874 4.26129059 2.72588135 5.28051758 3.37695312 C6.26071365 4.00380005 7.24090973 4.63064697 8.25080872 5.27648926 C21.09793382 13.33055164 35.45724679 17.17070221 50 21 C50.85319824 21.22929199 51.70639648 21.45858398 52.58544922 21.69482422 C97.44085572 33.54325293 145.53834682 36.35497806 191.75 37.5625 C192.53391113 37.58334656 193.31782227 37.60419312 194.12548828 37.62567139 C206.75400972 37.95737799 219.36704811 38.20526803 232 38 C233.22895996 37.98211426 234.45791992 37.96422852 235.72412109 37.94580078 C343.46070714 37.24823093 343.46070714 37.24823093 442 0 C442.1635243 28.02463388 442.28696273 56.04919625 442.3626852 84.07421112 C442.39877909 97.08674569 442.44798789 110.09898382 442.52807617 123.11132812 C442.5978482 134.45294534 442.64300813 145.79434786 442.65861946 157.13617373 C442.66774504 163.14166623 442.68919022 169.14654456 442.7401104 175.15184021 C442.78766093 180.80559758 442.80227307 186.45848842 442.79175377 192.11242676 C442.79367787 194.18608816 442.80758035 196.25977885 442.83443832 198.33326721 C443.05158214 215.96355654 443.05158214 215.96355654 438.645401 221.15539551 C436.80810642 222.75928497 436.80810642 222.75928497 435 224 C433.97003906 224.7425 432.94007813 225.485 431.87890625 226.25 C397.32758926 244.48202593 356.42509349 249.04528744 318.0625 253.1875 C317.34879242 253.26631409 316.63508484 253.34512817 315.89974976 253.42633057 C285.69822958 256.71825136 255.5128794 257.3759152 225.1617012 257.31785583 C222.20772423 257.31242224 219.25375525 257.3100504 216.29977417 257.3079834 C188.86533915 257.27806002 161.53173369 257.0498075 134.21575928 254.22784424 C131.97354788 253.99727996 129.73042289 253.77854421 127.48681641 253.56201172 C36.09946875 244.6265009 36.09946875 244.6265009 7 224 C6.40836028 223.59534767 5.81672056 223.19069534 5.20715237 222.77378082 C1.57021723 219.59803725 -0.12584609 216.59474011 -0.63410759 211.81947327 C-0.95891751 206.30263354 -0.86621856 200.78676386 -0.79467773 195.26367188 C-0.79270207 193.13444077 -0.79381378 191.0052049 -0.79777527 188.87597656 C-0.79978123 183.10761956 -0.75866668 177.34028436 -0.70975757 171.57216454 C-0.6659571 165.53973974 -0.66188316 159.50729073 -0.65357971 153.47473145 C-0.63183509 142.05666443 -0.57440785 130.63906735 -0.50413328 119.22120714 C-0.4258537 106.22012627 -0.38739412 93.21902278 -0.35226524 80.21776485 C-0.27912473 53.47824951 -0.15602348 26.7391511 0 0 Z " fill="#DCCCFF" transform="translate(259,584)"/>
<path d="M0 0 C2.95397698 0.0054336 5.90794595 0.00780544 8.86192703 0.00987244 C36.29636206 0.03979581 63.62996751 0.26804834 90.94594193 3.0900116 C93.18815332 3.32057588 95.43127831 3.53931162 97.6748848 3.75584412 C199.4309673 13.70517079 199.4309673 13.70517079 222.4742012 37.25535583 C224.97666895 40.51044546 226.27564597 43.17154493 225.81404495 47.31785583 C223.36349569 54.83091704 216.47665303 58.85496365 209.80305862 62.3134613 C176.54090261 78.41021541 137.58727266 82.57904226 101.2242012 86.50535583 C100.51049362 86.58416992 99.79678604 86.66298401 99.06145096 86.7441864 C68.85993078 90.03610719 38.6745806 90.69377104 8.3234024 90.63571167 C5.36942543 90.63027807 2.41545645 90.62790623 -0.53852463 90.62583923 C-27.97295965 90.59591586 -55.3065651 90.36766333 -82.62253952 87.54570007 C-84.86475092 87.31513579 -87.10787591 87.09640005 -89.35148239 86.87986755 C-191.1075649 76.93054088 -191.1075649 76.93054088 -214.1507988 53.38035583 C-216.65326654 50.12526621 -217.95224357 47.46416674 -217.49064255 43.31785583 C-215.04009329 35.80479463 -208.15325063 31.78074802 -201.47965622 28.32225037 C-168.2175002 12.22549626 -129.26387026 8.05666941 -92.9007988 4.13035583 C-92.18709122 4.05154175 -91.47338364 3.97272766 -90.73804855 3.89152527 C-60.53652838 0.59960448 -30.3511782 -0.05805937 0 0 Z " fill="#DCCCFF" transform="translate(475.8382987976074,526.6821441650391)"/>
<path d="M0 0 C0.66 -0.0103125 1.32 -0.020625 2 -0.03125 C4.97547108 0.75910951 6.0965166 2.09527633 8 4.5 C8.50780869 7.7096138 8.50780869 7.7096138 8.51898193 11.58673096 C8.52648319 12.30068677 8.53398444 13.01464258 8.541713 13.75023341 C8.56201388 16.14270327 8.55388331 18.53422757 8.54589844 20.92675781 C8.55463219 22.64162129 8.56511728 24.35647661 8.57722473 26.07131958 C8.60512969 30.72802361 8.60848843 35.38446232 8.60750484 40.04123783 C8.61063009 44.9073337 8.63624018 49.7733094 8.65948486 54.63934326 C8.70007821 63.85444313 8.72039341 73.06947218 8.73345876 82.2846477 C8.74931751 92.77553556 8.78772839 103.2663027 8.82805204 113.75712061 C8.91049662 135.33804061 8.96456025 156.91895499 9 178.5 C9.44656952 178.05120987 9.89313904 177.60241974 10.35324097 177.14002991 C14.98948748 172.48170954 19.62921098 167.82687358 24.27099609 163.17407227 C26.00431858 161.43571199 27.73674371 159.69645649 29.46826172 157.95629883 C31.95306423 155.45940655 34.44104536 152.96572086 36.9296875 150.47265625 C37.70682098 149.69036148 38.48395447 148.90806671 39.28463745 148.10206604 C40.00523346 147.3813945 40.72582947 146.66072296 41.46826172 145.91821289 C42.10335663 145.28089737 42.73845154 144.64358185 43.39279175 143.98695374 C46.37046948 141.23207177 49.01445345 141.15028907 53.0234375 141.23046875 C55 141.5 55 141.5 57.5 143 C59.16490275 145.77483792 59.87208471 147.9920772 59.70069885 151.25074768 C58.7683339 154.24365115 57.2401859 155.82719133 55.10131836 158.11303711 C54.28291473 158.9906369 53.46451111 159.86823669 52.62130737 160.77243042 C48.31643234 165.2518159 43.96428588 169.6783124 39.56640625 174.06640625 C38.59742445 175.03606389 37.62859093 176.00586974 36.65989685 176.97581482 C34.65223959 178.98493028 32.6428254 180.99226628 30.63208008 182.99829102 C28.05410864 185.57050415 25.48073701 188.14726566 22.90861607 190.72532749 C20.91933754 192.71821035 18.92769519 194.70871704 16.93531609 196.69849968 C15.52360699 198.10921932 14.11390822 199.52194975 12.70423889 200.93470764 C11.42666969 202.2075486 11.42666969 202.2075486 10.12329102 203.50610352 C9.37322281 204.25537613 8.6231546 205.00464874 7.85035706 205.77662659 C4.85283904 208.56843524 2.29407518 209.03484461 -1.81419373 208.96025085 C-4.48825372 208.39719162 -5.59532625 207.48131681 -7.59790039 205.63598633 C-8.29295685 204.99730621 -8.98801331 204.3586261 -9.70413208 203.70059204 C-14.12634979 199.46189128 -18.48239864 195.16063383 -22.80859375 190.82421875 C-23.82595 189.80753761 -24.84345453 188.79100483 -25.86109924 187.77461243 C-27.97632658 185.66084827 -30.08976234 183.54531384 -32.2019043 181.4284668 C-34.91094572 178.71368479 -37.62451198 176.00347665 -40.33940029 173.29454327 C-42.43351245 171.20403681 -44.52524691 169.11116439 -46.61625862 167.01755714 C-47.61668556 166.01646323 -48.61785559 165.01611134 -49.61977959 164.01651573 C-51.01252592 162.62630074 -52.4017383 161.23254804 -53.79077148 159.83862305 C-54.58160629 159.04699265 -55.3724411 158.25536224 -56.1872406 157.43974304 C-59.15215839 154.26713301 -59.35628263 151.81413167 -59.26953125 147.4765625 C-59 145.5 -59 145.5 -57.5 143 C-54.71616221 141.32969732 -52.50223668 140.62016393 -49.23339844 140.81542969 C-39.4728117 143.80719676 -29.49220648 157.89701966 -22.375 165.0625 C-21.07185054 166.3706778 -19.7684667 167.67862217 -18.46484375 168.98632812 C-15.30719208 172.15487214 -12.1527125 175.32654177 -9 178.5 C-8.99853344 177.60693775 -8.99706688 176.7138755 -8.99555588 175.79375076 C-8.95852752 154.0780394 -8.89956566 132.36248461 -8.81609726 110.64690018 C-8.77626342 100.14545683 -8.74389303 89.6440889 -8.72900391 79.14257812 C-8.71600988 69.99099518 -8.68910293 60.83957786 -8.64538693 51.68808818 C-8.6227214 46.8410134 -8.60709236 41.99414328 -8.60811615 37.1470108 C-8.60885976 32.58657766 -8.59102974 28.0265978 -8.55883217 23.46628189 C-8.55029961 21.79092347 -8.5486059 20.1155144 -8.55419731 18.44014359 C-8.56080868 16.15513907 -8.54298803 13.87158894 -8.51898193 11.58673096 C-8.51345118 9.66755796 -8.51345118 9.66755796 -8.50780869 7.7096138 C-7.72750537 2.77769285 -5.11512505 -0.07992383 0 0 Z " fill="#BFAFDE" transform="translate(480,255.5)"/>
<path d="M0 0 C4.95 0 9.9 0 15 0 C17.10547223 6.16506053 18.99128603 12.34315641 20.69921875 18.62890625 C20.91243774 19.40617065 21.12565674 20.18343506 21.34533691 20.98425293 C22.12875984 23.84292953 22.90788988 26.70278122 23.6875 29.5625 C25.440625 35.976875 27.19375 42.39125 29 49 C33.29 32.83 37.58 16.66 42 0 C46.95 0 51.9 0 57 0 C59.19093522 5.60082424 60.96563015 11.1712485 62.48046875 16.98828125 C62.80704216 18.22580391 62.80704216 18.22580391 63.14021301 19.48832703 C63.59510849 21.21637303 64.04793959 22.94496369 64.4987793 24.67407227 C65.19050932 27.32402843 65.89070897 29.97164671 66.59179688 32.61914062 C67.03435836 34.30455519 67.47643313 35.99009765 67.91796875 37.67578125 C68.12729538 38.46640457 68.33662201 39.25702789 68.55229187 40.0716095 C69.3442318 43.12565487 70 45.83082495 70 49 C70.66 49 71.32 49 72 49 C72.11335693 48.04859131 72.22671387 47.09718262 72.34350586 46.11694336 C73.02639195 41.35761722 74.26596465 36.76924795 75.50390625 32.12890625 C75.7466478 31.206577 75.98938934 30.28424774 76.23948669 29.33396912 C77.01014573 26.40916051 77.78623614 23.48582546 78.5625 20.5625 C79.08825089 18.57105862 79.61364529 16.57952309 80.13867188 14.58789062 C81.42165823 9.72416112 82.70951527 4.86174509 84 0 C88.95 0 93.9 0 99 0 C98.3137303 4.80388788 97.60478459 8.78495271 96.25 13.34667969 C95.89292969 14.55773376 95.53585937 15.76878784 95.16796875 17.01654053 C94.77876592 18.31835459 94.38944009 19.62013189 94 20.921875 C93.59984571 22.2721957 93.20011296 23.62264138 92.80078125 24.97320557 C91.7534008 28.51113797 90.70005726 32.04726777 89.64550781 35.58306885 C88.57230586 39.18574367 87.50530275 42.79025332 86.4375 46.39453125 C84.87794162 51.65419719 83.31647638 56.91328838 81.75 62.17089844 C81.27820312 63.75472321 81.27820312 63.75472321 80.796875 65.37054443 C80.22558438 67.25563721 79.62289227 69.1313232 79 71 C74.05 71 69.1 71 64 71 C59.20768924 54.70031691 54.55677821 38.36720338 50 22 C45.38 38.17 40.76 54.34 36 71 C31.05 71 26.1 71 21 71 C16.48219996 57.93669653 12.62730879 44.70105146 8.78686523 31.42480469 C7.86019396 28.22189292 6.93066316 25.01984375 5.99936199 21.81827736 C5.10610885 18.74648526 4.21517608 15.67402114 3.32421875 12.6015625 C2.98992355 11.45072174 2.65562836 10.29988098 2.311203 9.11416626 C2.00700943 8.06151581 1.70281586 7.00886536 1.3894043 5.92431641 C1.12024704 4.994711 0.85108978 4.06510559 0.57377625 3.10733032 C0 1 0 1 0 0 Z " fill="#DCCCFF" transform="translate(1015,641)"/>
<path d="M0 0 C19.47 0 38.94 0 59 0 C59 4.29 59 8.58 59 13 C44.48 13 29.96 13 15 13 C15 21.91 15 30.82 15 40 C28.53 40 42.06 40 56 40 C56 44.29 56 48.58 56 53 C42.47 53 28.94 53 15 53 C15 62.24 15 71.48 15 81 C29.85 81 44.7 81 60 81 C60 85.29 60 89.58 60 94 C40.2 94 20.4 94 0 94 C0 62.98 0 31.96 0 0 Z " fill="#DCCCFF" transform="translate(810,618)"/>
<path d="M0 0 C4.62 0 9.24 0 14 0 C14 31.02 14 62.04 14 94 C9.38 94 4.76 94 0 94 C-0.495 89.545 -0.495 89.545 -1 85 C-1.66 85.9075 -2.32 86.815 -3 87.75 C-7.06260355 92.49908227 -11.05109386 94.62391781 -17.27734375 95.41796875 C-26.88885956 95.80409914 -33.41413069 93.77060366 -40.8125 87.6875 C-49.35760027 77.18923396 -51.57625592 66.33418954 -50.82421875 52.84765625 C-49.65240262 43.8400595 -46.40457752 34.63784123 -39.5 28.4375 C-32.53851304 23.22405162 -25.6806797 21.18959543 -17 22 C-8.93117367 23.3887825 -6.79286352 26.37958455 -1 33 C-0.67 22.11 -0.34 11.22 0 0 Z M-32.3125 41.75 C-36.79322818 50.37955057 -37.28054772 59.88402131 -34.875 69.25 C-32.8644237 75.17789633 -29.7814974 79.4828196 -24.25 82.5 C-18.91579382 83.3206471 -13.74581411 83.52659068 -8.90625 80.8359375 C-3.22658008 76.33552108 -1.20361903 71.05278517 0 64 C0.68772252 55.39024304 -0.21876585 47.50751741 -4.8125 40.0625 C-8.86060755 36.24571288 -12.42546783 34.81342711 -17.9375 34.5625 C-24.34932522 34.78426238 -28.11585131 36.75939075 -32.3125 41.75 Z " fill="#DCCCFF" transform="translate(1195,618)"/>
<path d="M0 0 C4.62 0 9.24 0 14 0 C14.33 17.16 14.66 34.32 15 52 C19.99675115 47.00324885 24.63335038 42.35001911 29.16796875 37.05078125 C31.99704226 33.88390792 35.03867562 30.94001424 38.08203125 27.98046875 C40.16317067 25.95064723 40.16317067 25.95064723 42 23 C43.87939453 22.65942383 43.87939453 22.65942383 46.1328125 22.70703125 C46.93847656 22.71669922 47.74414062 22.72636719 48.57421875 22.73632812 C49.41597656 22.76146484 50.25773438 22.78660156 51.125 22.8125 C51.97449219 22.82603516 52.82398438 22.83957031 53.69921875 22.85351562 C55.79974837 22.88891781 57.89995293 22.94272599 60 23 C55.95298168 28.72668166 51.53636976 33.69400923 46.5 38.5625 C41.73876708 43.19388111 37.25628896 47.89639425 33 53 C34.59026273 56.28277512 36.41181616 59.02788958 38.625 61.9375 C39.41261719 62.97777344 40.20023438 64.01804687 41.01171875 65.08984375 C43.36172798 68.17056286 45.72206935 71.24330776 48.08203125 74.31640625 C48.79858887 75.25170166 49.51514648 76.18699707 50.25341797 77.15063477 C51.69587492 79.03247191 53.14145666 80.91191845 54.59033203 82.78881836 C55.2604834 83.6628833 55.93063477 84.53694824 56.62109375 85.4375 C57.2236499 86.21996094 57.82620605 87.00242187 58.44702148 87.80859375 C59.86884493 89.81492723 60.9743505 91.77029957 62 94 C55.96159499 95.1090948 49.93552386 95.98618756 44 94 C38.61788418 89.9321658 35.089487 83.95899355 31.51025391 78.33496094 C29.38379858 75.04730838 27.0174125 71.9710065 24.625 68.875 C23.41492365 67.25129755 22.20580367 65.62687797 21 64 C18.26752062 65.57643041 16.82168751 66.49470095 15 69 C14.08965708 73.26109935 14.11526306 77.46739261 14.125 81.8125 C14.104375 82.98232422 14.08375 84.15214844 14.0625 85.35742188 C14.0154706 88.23797269 14.0042523 91.11906843 14 94 C9.38 94 4.76 94 0 94 C0 62.98 0 31.96 0 0 Z " fill="#DCCCFF" transform="translate(883,618)"/>
<path d="M0 0 C7.98528999 5.77718371 11.60351398 12.80126307 14 22.1875 C14.38144468 26.86019736 14.25 31.56175932 14.25 36.25 C-2.25 36.25 -18.75 36.25 -35.75 36.25 C-33.27129564 46.75955605 -33.27129564 46.75955605 -26.25 53.5625 C-20.64866835 56.08980433 -14.44802741 56.50504741 -8.59765625 54.51953125 C-4.63733142 52.46820021 -2.86572507 50.04697088 -0.75 46.25 C1.39729141 46.53073073 3.54283193 46.82488499 5.6875 47.125 C6.88246094 47.28742187 8.07742188 47.44984375 9.30859375 47.6171875 C10.27925781 47.82601562 11.24992187 48.03484375 12.25 48.25 C13.25 50.25 13.25 50.25 12.71875 51.984375 C8.95914697 59.80677484 3.5071009 64.57539753 -4.6796875 67.5546875 C-14.56129064 69.79250602 -25.96287845 69.68582884 -34.75 64.25 C-42.79060908 58.61872236 -47.53717348 51.81291988 -49.75 42.25 C-51.01878192 28.74955617 -50.13326665 16.64875019 -41.8359375 5.515625 C-31.23429798 -5.99926437 -13.16432203 -8.33958709 0 0 Z M-29.58203125 11.8359375 C-33.20787828 15.8764191 -35.75 19.68114332 -35.75 25.25 C-23.87 25.25 -11.99 25.25 0.25 25.25 C-1.96199994 16.08147686 -1.96199994 16.08147686 -8 9.4375 C-15.37038088 6.25483553 -23.31150546 6.40772114 -29.58203125 11.8359375 Z " fill="#DCCCFF" transform="translate(1271.75,644.75)"/>
<path d="M0 0 C7.36211785 5.26794652 11.11713853 12.73965869 13.25 21.375 C13.66174639 24.67996439 13.72891381 27.9221274 13.6875 31.25 C13.67775146 32.12769043 13.66800293 33.00538086 13.65795898 33.90966797 C13.35493759 45.00538698 10.38936109 52.20969887 2.6328125 60.2734375 C-5.68976453 67.61367757 -15.17629147 68.01596605 -25.73876953 67.54980469 C-33.5090717 66.87445432 -39.59911631 61.91951017 -44.75 56.375 C-51.7910427 47.13586529 -53.26020243 36.88971169 -52.57421875 25.44140625 C-51.18046461 15.74144058 -46.99784714 5.92755169 -39.1484375 -0.22265625 C-26.41560376 -7.66742386 -12.51283101 -7.55808585 0 0 Z M-31.75 11.375 C-37.65834162 18.88119501 -38.66123162 28.12426883 -37.75 37.375 C-36.26763397 44.20986135 -34.01900465 49.0474374 -28.43359375 53.3515625 C-24.12176499 55.97267418 -19.62137993 55.81024357 -14.75 55.375 C-8.87345929 53.53137938 -5.75483289 49.55413743 -2.75 44.375 C0.64424358 36.30963073 0.06765135 26.94442968 -2.62890625 18.77734375 C-4.5450922 14.67123101 -7.34096302 11.34241173 -10.75 8.375 C-18.23805614 5.87898129 -25.56683662 6.4537067 -31.75 11.375 Z " fill="#DCCCFF" transform="translate(997.75,645.625)"/>
<path d="M0 0 C4.95 0 9.9 0 15 0 C15.4031543 1.18964355 15.80630859 2.37928711 16.22167969 3.60498047 C17.7322916 8.06017611 19.24648945 12.51414629 20.76171875 16.96777344 C21.41437545 18.8876934 22.06608681 20.80793502 22.71679688 22.72851562 C23.65760954 25.50477876 24.60192783 28.27982928 25.546875 31.0546875 C25.83246277 31.8998996 26.11805054 32.74511169 26.41229248 33.61593628 C28.42524419 39.51194003 30.67877353 45.19693382 33 51 C38.61 34.17 44.22 17.34 50 0 C55.28 0 60.56 0 66 0 C61.24315138 14.60107049 56.15111543 29.05732509 50.83642578 43.46435547 C49.60124576 46.81442657 48.37263218 50.16685936 47.14453125 53.51953125 C46.35975603 55.65378598 45.57461441 57.78790602 44.7890625 59.921875 C44.42245514 60.92265076 44.05584778 61.92342651 43.6781311 62.95452881 C43.34042694 63.8676886 43.00272278 64.78084839 42.65478516 65.72167969 C42.21013412 66.92905792 42.21013412 66.92905792 41.75650024 68.16082764 C41 70 41 70 40 71 C37.4672235 71.07320163 34.96896082 71.09227569 32.4375 71.0625 C31.12402588 71.0514624 29.81055176 71.0404248 28.45727539 71.02905273 C26.74592407 71.01467163 26.74592407 71.01467163 25 71 C19.67637693 57.57120685 14.67475785 44.0356572 9.78149414 30.44458008 C8.54498933 27.01391691 7.30090131 23.58605984 6.05664062 20.15820312 C5.26776909 17.97152009 4.47934053 15.78467718 3.69140625 13.59765625 C3.3196376 12.57591812 2.94786896 11.55417999 2.56483459 10.5014801 C2.2270549 9.55876755 1.88927521 8.61605499 1.54125977 7.64477539 C1.24260513 6.81748428 0.9439505 5.99019318 0.63624573 5.13783264 C0 3 0 3 0 0 Z " fill="#DCCCFF" transform="translate(1290,641)"/>
<path d="M0 0 C3.0216321 0.73251687 4.80104733 2.27158096 6.93359375 4.46875 C8.34360039 7.28876327 8.17907826 9.33882255 7.93359375 12.46875 C6.67070716 15.24710049 5.58137665 16.95977772 3.18359375 18.84375 C-0.25472843 19.79883949 -2.63038313 19.37296661 -6.06640625 18.46875 C-9.6857344 15.85051262 -10.88831043 14.44827699 -11.69140625 10.03125 C-10.47895844 3.12029751 -6.99236205 -0.52872303 0 0 Z " fill="#DCCCFF" transform="translate(1125.06640625,693.53125)"/>
</svg>
