<?xml version="1.0" encoding="UTF-8"?>
<svg version="1.1" xmlns="http://www.w3.org/2000/svg" width="960" height="1100">
<path d="M0 0 C1.12998161 0.72370789 1.12998161 0.72370789 2.28279114 1.46203613 C3.27204086 2.09395874 4.26129059 2.72588135 5.28051758 3.37695312 C6.26071365 4.00380005 7.24090973 4.63064697 8.25080872 5.27648926 C21.09793382 13.33055164 35.45724679 17.17070221 50 21 C50.85319824 21.22929199 51.70639648 21.45858398 52.58544922 21.69482422 C97.44085572 33.54325293 145.53834682 36.35497806 191.75 37.5625 C192.53391113 37.58334656 193.31782227 37.60419312 194.12548828 37.62567139 C206.75400972 37.95737799 219.36704811 38.20526803 232 38 C233.22895996 37.98211426 234.45791992 37.96422852 235.72412109 37.94580078 C343.46070714 37.24823093 343.46070714 37.24823093 442 0 C442.1635243 28.02463388 442.28696273 56.04919625 442.3626852 84.07421112 C442.39877909 97.08674569 442.44798789 110.09898382 442.52807617 123.11132812 C442.5978482 134.45294534 442.64300813 145.79434786 442.65861946 157.13617373 C442.66774504 163.14166623 442.68919022 169.14654456 442.7401104 175.15184021 C442.78766093 180.80559758 442.80227307 186.45848842 442.79175377 192.11242676 C442.79367787 194.18608816 442.80758035 196.25977885 442.83443832 198.33326721 C443.05158214 215.96355654 443.05158214 215.96355654 438.645401 221.15539551 C436.80810642 222.75928497 436.80810642 222.75928497 435 224 C433.97003906 224.7425 432.94007813 225.485 431.87890625 226.25 C397.32758926 244.48202593 356.42509349 249.04528744 318.0625 253.1875 C317.34879242 253.26631409 316.63508484 253.34512817 315.89974976 253.42633057 C285.69822958 256.71825136 255.5128794 257.3759152 225.1617012 257.31785583 C222.20772423 257.31242224 219.25375525 257.3100504 216.29977417 257.3079834 C188.86533915 257.27806002 161.53173369 257.0498075 134.21575928 254.22784424 C131.97354788 253.99727996 129.73042289 253.77854421 127.48681641 253.56201172 C36.09946875 244.6265009 36.09946875 244.6265009 7 224 C6.40836028 223.59534767 5.81672056 223.19069534 5.20715237 222.77378082 C1.57021723 219.59803725 -0.12584609 216.59474011 -0.63410759 211.81947327 C-0.95891751 206.30263354 -0.86621856 200.78676386 -0.79467773 195.26367188 C-0.79270207 193.13444077 -0.79381378 191.0052049 -0.79777527 188.87597656 C-0.79978123 183.10761956 -0.75866668 177.34028436 -0.70975757 171.57216454 C-0.6659571 165.53973974 -0.66188316 159.50729073 -0.65357971 153.47473145 C-0.63183509 142.05666443 -0.57440785 130.63906735 -0.50413328 119.22120714 C-0.4258537 106.22012627 -0.38739412 93.21902278 -0.35226524 80.21776485 C-0.27912473 53.47824951 -0.15602348 26.7391511 0 0 Z " fill="#DCCCFF" transform="translate(259,584)"/>
<path d="M0 0 C2.95397698 0.0054336 5.90794595 0.00780544 8.86192703 0.00987244 C36.29636206 0.03979581 63.62996751 0.26804834 90.94594193 3.0900116 C93.18815332 3.32057588 95.43127831 3.53931162 97.6748848 3.75584412 C199.4309673 13.70517079 199.4309673 13.70517079 222.4742012 37.25535583 C224.97666895 40.51044546 226.27564597 43.17154493 225.81404495 47.31785583 C223.36349569 54.83091704 216.47665303 58.85496365 209.80305862 62.3134613 C176.54090261 78.41021541 137.58727266 82.57904226 101.2242012 86.50535583 C100.51049362 86.58416992 99.79678604 86.66298401 99.06145096 86.7441864 C68.85993078 90.03610719 38.6745806 90.69377104 8.3234024 90.63571167 C5.36942543 90.63027807 2.41545645 90.62790623 -0.53852463 90.62583923 C-27.97295965 90.59591586 -55.3065651 90.36766333 -82.62253952 87.54570007 C-84.86475092 87.31513579 -87.10787591 87.09640005 -89.35148239 86.87986755 C-191.1075649 76.93054088 -191.1075649 76.93054088 -214.1507988 53.38035583 C-216.65326654 50.12526621 -217.95224357 47.46416674 -217.49064255 43.31785583 C-215.04009329 35.80479463 -208.15325063 31.78074802 -201.47965622 28.32225037 C-168.2175002 12.22549626 -129.26387026 8.05666941 -92.9007988 4.13035583 C-92.18709122 4.05154175 -91.47338364 3.97272766 -90.73804855 3.89152527 C-60.53652838 0.59960448 -30.3511782 -0.05805937 0 0 Z " fill="#DCCCFF" transform="translate(475.8382987976074,526.6821441650391)"/>
<path d="M0 0 C0.66 -0.0103125 1.32 -0.020625 2 -0.03125 C4.97547108 0.75910951 6.0965166 2.09527633 8 4.5 C8.50780869 7.7096138 8.50780869 7.7096138 8.51898193 11.58673096 C8.52648319 12.30068677 8.53398444 13.01464258 8.541713 13.75023341 C8.56201388 16.14270327 8.55388331 18.53422757 8.54589844 20.92675781 C8.55463219 22.64162129 8.56511728 24.35647661 8.57722473 26.07131958 C8.60512969 30.72802361 8.60848843 35.38446232 8.60750484 40.04123783 C8.61063009 44.9073337 8.63624018 49.7733094 8.65948486 54.63934326 C8.70007821 63.85444313 8.72039341 73.06947218 8.73345876 82.2846477 C8.74931751 92.77553556 8.78772839 103.2663027 8.82805204 113.75712061 C8.91049662 135.33804061 8.96456025 156.91895499 9 178.5 C9.44656952 178.05120987 9.89313904 177.60241974 10.35324097 177.14002991 C14.98948748 172.48170954 19.62921098 167.82687358 24.27099609 163.17407227 C26.00431858 161.43571199 27.73674371 159.69645649 29.46826172 157.95629883 C31.95306423 155.45940655 34.44104536 152.96572086 36.9296875 150.47265625 C37.70682098 149.69036148 38.48395447 148.90806671 39.28463745 148.10206604 C40.00523346 147.3813945 40.72582947 146.66072296 41.46826172 145.91821289 C42.10335663 145.28089737 42.73845154 144.64358185 43.39279175 143.98695374 C46.37046948 141.23207177 49.01445345 141.15028907 53.0234375 141.23046875 C55 141.5 55 141.5 57.5 143 C59.16490275 145.77483792 59.87208471 147.9920772 59.70069885 151.25074768 C58.7683339 154.24365115 57.2401859 155.82719133 55.10131836 158.11303711 C54.28291473 158.9906369 53.46451111 159.86823669 52.62130737 160.77243042 C48.31643234 165.2518159 43.96428588 169.6783124 39.56640625 174.06640625 C38.59742445 175.03606389 37.62859093 176.00586974 36.65989685 176.97581482 C34.65223959 178.98493028 32.6428254 180.99226628 30.63208008 182.99829102 C28.05410864 185.57050415 25.48073701 188.14726566 22.90861607 190.72532749 C20.91933754 192.71821035 18.92769519 194.70871704 16.93531609 196.69849968 C15.52360699 198.10921932 14.11390822 199.52194975 12.70423889 200.93470764 C11.42666969 202.2075486 11.42666969 202.2075486 10.12329102 203.50610352 C9.37322281 204.25537613 8.6231546 205.00464874 7.85035706 205.77662659 C4.85283904 208.56843524 2.29407518 209.03484461 -1.81419373 208.96025085 C-4.48825372 208.39719162 -5.59532625 207.48131681 -7.59790039 205.63598633 C-8.29295685 204.99730621 -8.98801331 204.3586261 -9.70413208 203.70059204 C-14.12634979 199.46189128 -18.48239864 195.16063383 -22.80859375 190.82421875 C-23.82595 189.80753761 -24.84345453 188.79100483 -25.86109924 187.77461243 C-27.97632658 185.66084827 -30.08976234 183.54531384 -32.2019043 181.4284668 C-34.91094572 178.71368479 -37.62451198 176.00347665 -40.33940029 173.29454327 C-42.43351245 171.20403681 -44.52524691 169.11116439 -46.61625862 167.01755714 C-47.61668556 166.01646323 -48.61785559 165.01611134 -49.61977959 164.01651573 C-51.01252592 162.62630074 -52.4017383 161.23254804 -53.79077148 159.83862305 C-54.58160629 159.04699265 -55.3724411 158.25536224 -56.1872406 157.43974304 C-59.15215839 154.26713301 -59.35628263 151.81413167 -59.26953125 147.4765625 C-59 145.5 -59 145.5 -57.5 143 C-54.71616221 141.32969732 -52.50223668 140.62016393 -49.23339844 140.81542969 C-39.4728117 143.80719676 -29.49220648 157.89701966 -22.375 165.0625 C-21.07185054 166.3706778 -19.7684667 167.67862217 -18.46484375 168.98632812 C-15.30719208 172.15487214 -12.1527125 175.32654177 -9 178.5 C-8.99853344 177.60693775 -8.99706688 176.7138755 -8.99555588 175.79375076 C-8.95852752 154.0780394 -8.89956566 132.36248461 -8.81609726 110.64690018 C-8.77626342 100.14545683 -8.74389303 89.6440889 -8.72900391 79.14257812 C-8.71600988 69.99099518 -8.68910293 60.83957786 -8.64538693 51.68808818 C-8.6227214 46.8410134 -8.60709236 41.99414328 -8.60811615 37.1470108 C-8.60885976 32.58657766 -8.59102974 28.0265978 -8.55883217 23.46628189 C-8.55029961 21.79092347 -8.5486059 20.1155144 -8.55419731 18.44014359 C-8.56080868 16.15513907 -8.54298803 13.87158894 -8.51898193 11.58673096 C-8.51345118 9.66755796 -8.51345118 9.66755796 -8.50780869 7.7096138 C-7.72750537 2.77769285 -5.11512505 -0.07992383 0 0 Z " fill="#BFAFDE" transform="translate(480,255.5)"/>
</svg>
